<?xml version="1.0" encoding="UTF-8" standalone="no"?>
<!DOCTYPE svg PUBLIC "-//W3C//DTD SVG 1.0//EN" "http://www.w3.org/TR/2001/PR-SVG-20010719/DTD/svg10.dtd">
<svg width="49cm" height="40cm" viewBox="33 96 980 792" xmlns="http://www.w3.org/2000/svg" xmlns:xlink="http://www.w3.org/1999/xlink">
  <g>
    <path style="fill: #b6c7c9" d="M 422.451 113.285 L 422.402,112.478 L 422.231,111.672 L 421.915,110.88 L 421.476,110.087 L 420.891,109.281 L 420.234,108.503 L 419.405,107.739 L 418.48,106.989 L 417.481,106.239 L 416.311,105.531 L 415.069,104.824 L 413.705,104.159 L 412.219,103.494 L 410.66,102.872 L 409.003,102.263 L 407.225,101.697 L 405.398,101.145 L 403.498,100.636 L 401.5,100.155 L 399.429,99.7165 L 397.285,99.292 L 395.069,98.9383 L 392.852,98.5846 L 390.537,98.2875 L 388.174,98.0187 L 385.811,97.7923 L 383.4,97.6084 L 380.963,97.481 L 378.503,97.3679 L 376.018,97.3113 L 373.533,97.283 L 373.533,97.283 L 371.073,97.3113 L 368.564,97.3679 L 366.127,97.481 L 363.691,97.6084 L 361.255,97.7923 L 358.892,98.0187 L 356.529,98.2875 L 354.239,98.5846 L 351.974,98.9383 L 349.805,99.292 L 347.662,99.7165 L 345.615,100.155 L 343.593,100.636 L 341.693,101.145 L 339.842,101.697 L 338.063,102.263 L 336.407,102.872 L 334.848,103.494 L 333.362,104.159 L 331.997,104.824 L 330.755,105.531 L 329.61,106.239 L 328.562,106.989 L 327.685,107.739 L 326.857,108.503 L 326.175,109.281 L 325.59,110.087 L 325.201,110.88 L 324.884,111.672 L 324.665,112.478 L 324.64,113.285 L 324.64,113.285 L 324.665,114.105 L 324.884,114.912 L 325.201,115.718 L 325.59,116.511 L 326.175,117.303 L 326.857,118.081 L 327.685,118.845 L 328.562,119.609 L 329.61,120.345 L 330.755,121.052 L 331.997,121.76 L 333.362,122.439 L 334.848,123.09 L 336.407,123.712 L 338.063,124.321 L 339.842,124.901 L 341.693,125.424 L 343.593,125.962 L 345.615,126.443 L 347.662,126.881 L 349.805,127.278 L 351.974,127.66 L 354.239,127.999 L 356.529,128.296 L 358.892,128.565 L 361.255,128.791 L 363.691,128.961 L 366.127,129.103 L 368.564,129.23 L 371.073,129.272 L 373.533,129.287 L 373.533,129.287 L 376.018,129.272 L 378.503,129.23 L 380.963,129.103 L 383.4,128.961 L 385.811,128.791 L 388.174,128.565 L 390.537,128.296 L 392.852,127.999 L 395.069,127.66 L 397.285,127.278 L 399.429,126.881 L 401.5,126.443 L 403.498,125.962 L 405.398,125.424 L 407.225,124.901 L 409.003,124.321 L 410.66,123.712 L 412.219,123.09 L 413.705,122.439 L 415.069,121.76 L 416.311,121.052 L 417.481,120.345 L 418.48,119.609 L 419.405,118.845 L 420.234,118.081 L 420.891,117.303 L 421.476,116.511 L 421.915,115.718 L 422.231,114.912 L 422.402,114.105 L 422.451,113.285z"/>
    <path style="fill: #b6c7c9" d="M 345.786 121.689 L 345.737,120.882 L 345.567,120.076 L 345.372,119.284 L 345.031,118.477 L 344.592,117.685 L 344.056,116.907 L 343.423,116.143 L 342.741,115.393 L 341.961,114.643 L 341.084,113.936 L 340.134,113.228 L 339.087,112.563 L 337.917,111.898 L 336.723,111.276 L 335.457,110.667 L 334.092,110.101 L 332.728,109.55 L 331.218,109.04 L 329.707,108.559 L 328.1,108.135 L 326.492,107.696 L 324.811,107.314 L 323.057,106.989 L 321.303,106.692 L 319.5,106.423 L 317.673,106.196 L 315.822,106.013 L 313.946,105.885 L 312.094,105.772 L 310.194,105.701 L 308.294,105.687 L 308.294,105.687 L 306.394,105.701 L 304.494,105.772 L 302.593,105.885 L 300.742,106.013 L 298.866,106.196 L 297.039,106.423 L 295.261,106.692 L 293.507,106.989 L 291.777,107.314 L 290.096,107.696 L 288.44,108.135 L 286.88,108.559 L 285.321,109.04 L 283.86,109.55 L 282.471,110.101 L 281.107,110.667 L 279.84,111.276 L 278.622,111.898 L 277.477,112.563 L 276.454,113.228 L 275.479,113.936 L 274.627,114.643 L 273.823,115.393 L 273.116,116.143 L 272.507,116.907 L 271.971,117.685 L 271.533,118.477 L 271.216,119.284 L 270.973,120.076 L 270.826,120.882 L 270.778,121.689 L 270.778,121.689 L 270.826,122.51 L 270.973,123.316 L 271.216,124.122 L 271.533,124.915 L 271.971,125.707 L 272.507,126.485 L 273.116,127.249 L 273.823,127.999 L 274.627,128.749 L 275.479,129.456 L 276.454,130.164 L 277.477,130.829 L 278.622,131.494 L 279.84,132.116 L 281.107,132.725 L 282.471,133.291 L 283.86,133.828 L 285.321,134.338 L 286.88,134.847 L 288.44,135.286 L 290.096,135.682 L 291.777,136.078 L 293.507,136.403 L 295.261,136.7 L 297.039,136.969 L 298.866,137.181 L 300.742,137.365 L 302.593,137.507 L 304.494,137.634 L 306.394,137.677 L 308.294,137.691 L 308.294,137.691 L 310.194,137.677 L 312.094,137.634 L 313.946,137.507 L 315.822,137.365 L 317.673,137.181 L 319.5,136.969 L 321.303,136.7 L 323.057,136.403 L 324.811,136.078 L 326.492,135.682 L 328.1,135.286 L 329.707,134.847 L 331.218,134.338 L 332.728,133.828 L 334.092,133.291 L 335.457,132.725 L 336.723,132.116 L 337.917,131.494 L 339.087,130.829 L 340.134,130.164 L 341.084,129.456 L 341.961,128.749 L 342.741,127.999 L 343.423,127.249 L 344.056,126.485 L 344.592,125.707 L 345.031,124.915 L 345.372,124.122 L 345.567,123.316 L 345.737,122.51 L 345.786,121.689z"/>
    <path style="fill: #b6c7c9" d="M 298.501 138.03 L 298.476,137.365 L 298.403,136.7 L 298.233,136.035 L 298.014,135.385 L 297.697,134.762 L 297.331,134.111 L 296.942,133.475 L 296.479,132.866 L 295.943,132.258 L 295.334,131.678 L 294.676,131.126 L 293.97,130.56 L 293.214,130.022 L 292.41,129.499 L 291.533,129.018 L 290.632,128.565 L 289.706,128.098 L 288.732,127.688 L 287.684,127.292 L 286.612,126.924 L 285.516,126.598 L 284.371,126.287 L 283.226,126.018 L 282.033,125.778 L 280.815,125.551 L 279.596,125.382 L 278.354,125.212 L 277.063,125.113 L 275.796,125.028 L 274.554,124.985 L 273.263,124.957 L 273.263,124.957 L 271.971,124.985 L 270.68,125.028 L 269.413,125.113 L 268.171,125.212 L 266.904,125.382 L 265.662,125.551 L 264.468,125.778 L 263.299,126.018 L 262.105,126.287 L 260.96,126.598 L 259.864,126.924 L 258.792,127.292 L 257.769,127.688 L 256.77,128.098 L 255.844,128.565 L 254.943,129.018 L 254.09,129.499 L 253.262,130.022 L 252.507,130.56 L 251.8,131.126 L 251.143,131.678 L 250.582,132.258 L 250.046,132.866 L 249.583,133.475 L 249.145,134.111 L 248.78,134.762 L 248.512,135.385 L 248.292,136.035 L 248.097,136.7 L 248,137.365 L 248,138.03 L 248,138.03 L 248,138.667 L 248.097,139.332 L 248.292,139.983 L 248.512,140.634 L 248.78,141.299 L 249.145,141.921 L 249.583,142.544 L 250.046,143.166 L 250.582,143.775 L 251.143,144.355 L 251.8,144.921 L 252.507,145.472 L 253.262,146.01 L 254.09,146.519 L 254.943,147 L 255.844,147.467 L 256.77,147.934 L 257.769,148.33 L 258.792,148.726 L 259.864,149.094 L 260.96,149.434 L 262.105,149.745 L 263.299,150.014 L 264.468,150.254 L 265.662,150.467 L 266.904,150.651 L 268.171,150.806 L 269.413,150.934 L 270.68,151.004 L 271.971,151.047 L 273.263,151.075 L 273.263,151.075 L 274.554,151.047 L 275.796,151.004 L 277.063,150.934 L 278.354,150.806 L 279.596,150.651 L 280.815,150.467 L 282.033,150.254 L 283.226,150.014 L 284.371,149.745 L 285.516,149.434 L 286.612,149.094 L 287.684,148.726 L 288.732,148.33 L 289.706,147.934 L 290.632,147.467 L 291.533,147 L 292.41,146.519 L 293.214,146.01 L 293.97,145.472 L 294.676,144.921 L 295.334,144.355 L 295.943,143.775 L 296.479,143.166 L 296.942,142.544 L 297.331,141.921 L 297.697,141.299 L 298.014,140.634 L 298.233,139.983 L 298.403,139.332 L 298.476,138.667 L 298.501,138.03z"/>
    <path style="fill: #b6c7c9" d="M 339.281 150.608 L 339.257,149.887 L 339.087,149.179 L 338.819,148.458 L 338.502,147.75 L 338.063,147.057 L 337.552,146.364 L 336.894,145.685 L 336.212,145.02 L 335.384,144.397 L 334.507,143.746 L 333.508,143.124 L 332.46,142.544 L 331.34,141.964 L 330.122,141.383 L 328.83,140.86 L 327.466,140.351 L 326.029,139.884 L 324.519,139.417 L 322.984,139.007 L 321.376,138.596 L 319.695,138.243 L 317.99,137.903 L 316.236,137.606 L 314.457,137.337 L 312.63,137.111 L 310.754,136.927 L 308.903,136.757 L 307.003,136.615 L 305.103,136.531 L 303.178,136.474 L 301.229,136.46 L 301.229,136.46 L 299.305,136.474 L 297.405,136.531 L 295.456,136.615 L 293.58,136.757 L 291.68,136.927 L 289.853,137.111 L 288.025,137.337 L 286.223,137.606 L 284.469,137.903 L 282.788,138.243 L 281.107,138.596 L 279.499,139.007 L 277.94,139.417 L 276.454,139.884 L 275.017,140.351 L 273.652,140.86 L 272.361,141.383 L 271.143,141.964 L 269.998,142.544 L 268.951,143.124 L 267.952,143.746 L 267.05,144.397 L 266.271,145.02 L 265.564,145.685 L 264.907,146.364 L 264.371,147.057 L 263.981,147.75 L 263.616,148.458 L 263.372,149.179 L 263.226,149.887 L 263.177,150.608 L 263.177,150.608 L 263.226,151.316 L 263.372,152.037 L 263.616,152.745 L 263.981,153.452 L 264.371,154.145 L 264.907,154.839 L 265.564,155.532 L 266.271,156.197 L 267.05,156.833 L 267.952,157.456 L 268.951,158.079 L 269.998,158.673 L 271.143,159.267 L 272.361,159.833 L 273.652,160.356 L 275.017,160.852 L 276.454,161.333 L 277.94,161.785 L 279.499,162.21 L 281.107,162.62 L 282.788,162.974 L 284.469,163.313 L 286.223,163.596 L 288.025,163.865 L 289.853,164.092 L 291.68,164.29 L 293.58,164.474 L 295.456,164.601 L 297.405,164.686 L 299.305,164.742 L 301.229,164.742 L 301.229,164.742 L 303.178,164.742 L 305.103,164.686 L 307.003,164.601 L 308.903,164.474 L 310.754,164.29 L 312.63,164.092 L 314.457,163.865 L 316.236,163.596 L 317.99,163.313 L 319.695,162.974 L 321.376,162.62 L 322.984,162.21 L 324.519,161.785 L 326.029,161.333 L 327.466,160.852 L 328.83,160.356 L 330.122,159.833 L 331.34,159.267 L 332.46,158.673 L 333.508,158.079 L 334.507,157.456 L 335.384,156.833 L 336.212,156.197 L 336.894,155.532 L 337.552,154.839 L 338.063,154.145 L 338.502,153.452 L 338.819,152.745 L 339.087,152.037 L 339.257,151.316 L 339.281,150.608z"/>
    <path style="fill: #b6c7c9" d="M 430.612 157.923 L 430.514,157.06 L 430.319,156.197 L 429.929,155.362 L 429.418,154.527 L 428.784,153.693 L 428.005,152.886 L 427.079,152.094 L 426.007,151.287 L 424.789,150.509 L 423.474,149.759 L 421.988,149.038 L 420.429,148.33 L 418.723,147.637 L 416.921,146.972 L 414.947,146.335 L 412.95,145.741 L 410.806,145.161 L 408.565,144.623 L 406.275,144.128 L 403.839,143.661 L 401.378,143.223 L 398.82,142.841 L 396.214,142.473 L 393.509,142.162 L 390.805,141.879 L 388.028,141.652 L 385.251,141.454 L 382.376,141.313 L 379.575,141.214 L 376.676,141.129 L 373.801,141.129 L 373.801,141.129 L 370.927,141.129 L 368.052,141.214 L 365.202,141.313 L 362.376,141.454 L 359.55,141.652 L 356.797,141.879 L 354.069,142.162 L 351.413,142.473 L 348.758,142.841 L 346.249,143.223 L 343.739,143.661 L 341.352,144.128 L 339.038,144.623 L 336.821,145.161 L 334.677,145.741 L 332.631,146.335 L 330.706,146.972 L 328.904,147.637 L 327.174,148.33 L 325.59,149.038 L 324.129,149.759 L 322.838,150.509 L 321.62,151.287 L 320.548,152.094 L 319.622,152.886 L 318.818,153.693 L 318.185,154.527 L 317.649,155.362 L 317.283,156.197 L 317.064,157.06 L 316.991,157.923 L 316.991,157.923 L 317.064,158.744 L 317.283,159.607 L 317.649,160.441 L 318.185,161.29 L 318.818,162.125 L 319.622,162.931 L 320.548,163.724 L 321.62,164.53 L 322.838,165.308 L 324.129,166.058 L 325.59,166.78 L 327.174,167.516 L 328.904,168.18 L 330.706,168.845 L 332.631,169.468 L 334.677,170.091 L 336.821,170.656 L 339.038,171.194 L 341.352,171.689 L 343.739,172.17 L 346.249,172.581 L 348.758,172.977 L 351.413,173.33 L 354.069,173.642 L 356.797,173.939 L 359.55,174.151 L 362.376,174.349 L 365.202,174.505 L 368.052,174.604 L 370.927,174.689 L 373.801,174.689 L 373.801,174.689 L 376.676,174.689 L 379.575,174.604 L 382.376,174.505 L 385.251,174.349 L 388.028,174.151 L 390.805,173.939 L 393.509,173.642 L 396.214,173.33 L 398.82,172.977 L 401.378,172.581 L 403.839,172.17 L 406.275,171.689 L 408.565,171.194 L 410.806,170.656 L 412.95,170.091 L 414.947,169.468 L 416.921,168.845 L 418.723,168.18 L 420.429,167.516 L 421.988,166.78 L 423.474,166.058 L 424.789,165.308 L 426.007,164.53 L 427.079,163.724 L 428.005,162.931 L 428.784,162.125 L 429.418,161.29 L 429.929,160.441 L 430.319,159.607 L 430.514,158.744 L 430.612,157.923z"/>
    <path style="fill: #b6c7c9" d="M 462.135 119.199 L 462.111,118.576 L 461.964,117.925 L 461.696,117.289 L 461.404,116.666 L 460.966,116.058 L 460.478,115.435 L 459.869,114.827 L 459.163,114.233 L 458.408,113.667 L 457.579,113.087 L 456.629,112.535 L 455.606,111.997 L 454.534,111.502 L 453.341,110.993 L 452.122,110.526 L 450.783,110.087 L 449.418,109.635 L 448.005,109.238 L 446.495,108.87 L 444.96,108.517 L 443.401,108.191 L 441.745,107.894 L 440.064,107.625 L 438.358,107.385 L 436.604,107.173 L 434.85,107.031 L 433.048,106.861 L 431.245,106.748 L 429.393,106.677 L 427.566,106.635 L 425.715,106.607 L 425.715,106.607 L 423.839,106.635 L 422.012,106.677 L 420.161,106.748 L 418.358,106.861 L 416.579,107.031 L 414.801,107.173 L 413.071,107.385 L 411.342,107.625 L 409.661,107.894 L 408.004,108.191 L 406.421,108.517 L 404.91,108.87 L 403.4,109.238 L 401.987,109.635 L 400.623,110.087 L 399.307,110.526 L 398.065,110.993 L 396.871,111.502 L 395.799,111.997 L 394.801,112.535 L 393.826,113.087 L 392.998,113.667 L 392.243,114.233 L 391.536,114.827 L 390.927,115.435 L 390.44,116.058 L 390.026,116.666 L 389.685,117.289 L 389.465,117.925 L 389.344,118.576 L 389.271,119.199 L 389.271,119.199 L 389.344,119.835 L 389.465,120.472 L 389.685,121.095 L 390.026,121.731 L 390.44,122.354 L 390.927,122.962 L 391.536,123.571 L 392.243,124.165 L 392.998,124.759 L 393.826,125.311 L 394.801,125.849 L 395.799,126.4 L 396.871,126.91 L 398.065,127.391 L 399.307,127.872 L 400.623,128.325 L 401.987,128.749 L 403.4,129.145 L 404.91,129.541 L 406.421,129.895 L 408.004,130.206 L 409.661,130.518 L 411.342,130.772 L 413.071,130.999 L 414.801,131.225 L 416.579,131.395 L 418.358,131.536 L 420.161,131.664 L 422.012,131.72 L 423.839,131.791 L 425.715,131.791 L 425.715,131.791 L 427.566,131.791 L 429.393,131.72 L 431.245,131.664 L 433.048,131.536 L 434.85,131.395 L 436.604,131.225 L 438.358,130.999 L 440.064,130.772 L 441.745,130.518 L 443.401,130.206 L 444.96,129.895 L 446.495,129.541 L 448.005,129.145 L 449.418,128.749 L 450.783,128.325 L 452.122,127.872 L 453.341,127.391 L 454.534,126.91 L 455.606,126.4 L 456.629,125.849 L 457.579,125.311 L 458.408,124.759 L 459.163,124.165 L 459.869,123.571 L 460.478,122.962 L 460.966,122.354 L 461.404,121.731 L 461.696,121.095 L 461.964,120.472 L 462.111,119.835 L 462.135,119.199z"/>
    <path style="fill: #b6c7c9" d="M 472.464 135.37 L 472.391,134.734 L 472.294,134.097 L 472.05,133.475 L 471.733,132.852 L 471.295,132.215 L 470.807,131.621 L 470.223,130.999 L 469.516,130.418 L 468.761,129.824 L 467.933,129.272 L 466.983,128.707 L 465.96,128.183 L 464.912,127.688 L 463.718,127.164 L 462.5,126.712 L 461.234,126.245 L 459.869,125.82 L 458.408,125.424 L 456.97,125.042 L 455.436,124.688 L 453.876,124.363 L 452.244,124.066 L 450.588,123.811 L 448.882,123.571 L 447.128,123.358 L 445.374,123.189 L 443.596,123.047 L 441.769,122.92 L 439.966,122.863 L 438.139,122.821 L 436.312,122.792 L 436.312,122.792 L 434.461,122.821 L 432.658,122.863 L 430.831,122.92 L 429.052,123.047 L 427.274,123.189 L 425.496,123.358 L 423.766,123.571 L 422.085,123.811 L 420.404,124.066 L 418.772,124.363 L 417.213,124.688 L 415.678,125.042 L 414.192,125.424 L 412.803,125.82 L 411.439,126.245 L 410.099,126.712 L 408.881,127.164 L 407.736,127.688 L 406.689,128.183 L 405.666,128.707 L 404.74,129.272 L 403.863,129.824 L 403.108,130.418 L 402.45,130.999 L 401.841,131.621 L 401.305,132.215 L 400.915,132.852 L 400.599,133.475 L 400.355,134.097 L 400.209,134.734 L 400.184,135.37 L 400.184,135.37 L 400.209,136.007 L 400.355,136.658 L 400.599,137.28 L 400.915,137.903 L 401.305,138.525 L 401.841,139.134 L 402.45,139.756 L 403.108,140.336 L 403.863,140.902 L 404.74,141.482 L 405.666,142.02 L 406.689,142.558 L 407.736,143.067 L 408.881,143.562 L 410.099,144.043 L 411.439,144.482 L 412.803,144.921 L 414.192,145.317 L 415.678,145.685 L 417.213,146.038 L 418.772,146.364 L 420.404,146.661 L 422.085,146.93 L 423.766,147.184 L 425.496,147.397 L 427.274,147.538 L 429.052,147.708 L 430.831,147.807 L 432.658,147.892 L 434.461,147.934 L 436.312,147.948 L 436.312,147.948 L 438.139,147.934 L 439.966,147.892 L 441.769,147.807 L 443.596,147.708 L 445.374,147.538 L 447.128,147.397 L 448.882,147.184 L 450.588,146.93 L 452.244,146.661 L 453.876,146.364 L 455.436,146.038 L 456.97,145.685 L 458.408,145.317 L 459.869,144.921 L 461.234,144.482 L 462.5,144.043 L 463.718,143.562 L 464.912,143.067 L 465.96,142.558 L 466.983,142.02 L 467.933,141.482 L 468.761,140.902 L 469.516,140.336 L 470.223,139.756 L 470.807,139.134 L 471.295,138.525 L 471.733,137.903 L 472.05,137.28 L 472.294,136.658 L 472.391,136.007 L 472.464,135.37z"/>
    <path style="fill: #b6c7c9" d="M 465.399 148.741 L 465.351,147.708 L 465.204,146.647 L 465.01,145.628 L 464.693,144.581 L 464.279,143.562 L 463.767,142.558 L 463.182,141.567 L 462.476,140.591 L 461.721,139.643 L 460.917,138.709 L 459.991,137.804 L 458.968,136.941 L 457.896,136.092 L 456.727,135.286 L 455.509,134.507 L 454.242,133.757 L 452.878,133.05 L 451.489,132.413 L 450.003,131.791 L 448.493,131.225 L 446.934,130.687 L 445.35,130.206 L 443.693,129.753 L 442.013,129.357 L 440.259,129.018 L 438.529,128.749 L 436.726,128.494 L 434.948,128.31 L 433.169,128.183 L 431.367,128.098 L 429.54,128.084 L 429.54,128.084 L 427.713,128.098 L 425.91,128.183 L 424.083,128.31 L 422.304,128.494 L 420.55,128.749 L 418.772,129.018 L 417.067,129.357 L 415.386,129.753 L 413.729,130.206 L 412.097,130.687 L 410.538,131.225 L 409.028,131.791 L 407.59,132.413 L 406.153,133.05 L 404.813,133.757 L 403.522,134.507 L 402.304,135.286 L 401.159,136.092 L 400.063,136.941 L 399.088,137.804 L 398.162,138.709 L 397.31,139.643 L 396.555,140.591 L 395.897,141.567 L 395.312,142.558 L 394.801,143.562 L 394.386,144.581 L 394.07,145.628 L 393.826,146.647 L 393.68,147.708 L 393.631,148.741 L 393.631,148.741 L 393.68,149.788 L 393.826,150.849 L 394.07,151.867 L 394.386,152.9 L 394.801,153.947 L 395.312,154.938 L 395.897,155.914 L 396.555,156.904 L 397.31,157.838 L 398.162,158.772 L 399.088,159.691 L 400.063,160.555 L 401.159,161.389 L 402.304,162.21 L 403.522,162.988 L 404.813,163.724 L 406.153,164.431 L 407.59,165.096 L 409.028,165.705 L 410.538,166.285 L 412.097,166.808 L 413.729,167.303 L 415.386,167.742 L 417.067,168.138 L 418.772,168.463 L 420.55,168.761 L 422.304,168.987 L 424.083,169.171 L 425.91,169.298 L 427.713,169.383 L 429.54,169.426 L 429.54,169.426 L 431.367,169.383 L 433.169,169.298 L 434.948,169.171 L 436.726,168.987 L 438.529,168.761 L 440.259,168.463 L 442.013,168.138 L 443.693,167.742 L 445.35,167.303 L 446.934,166.808 L 448.493,166.285 L 450.003,165.705 L 451.489,165.096 L 452.878,164.431 L 454.242,163.724 L 455.509,162.988 L 456.727,162.21 L 457.896,161.389 L 458.968,160.555 L 459.991,159.691 L 460.917,158.772 L 461.721,157.838 L 462.476,156.904 L 463.182,155.914 L 463.767,154.938 L 464.279,153.947 L 464.693,152.9 L 465.01,151.867 L 465.204,150.849 L 465.351,149.788 L 465.399,148.741z"/>
    <path style="fill: #b6c7c9" d="M 434.412 136.304 L 434.314,135.243 L 434.022,134.224 L 433.559,133.163 L 432.926,132.145 L 432.098,131.126 L 431.074,130.107 L 429.881,129.117 L 428.492,128.141 L 426.982,127.193 L 425.276,126.273 L 423.376,125.353 L 421.354,124.476 L 419.162,123.656 L 416.823,122.835 L 414.338,122.043 L 411.756,121.307 L 409.003,120.614 L 406.129,119.949 L 403.181,119.326 L 400.087,118.746 L 396.896,118.223 L 393.631,117.727 L 390.294,117.289 L 386.883,116.907 L 383.375,116.581 L 379.818,116.284 L 376.237,116.058 L 372.608,115.874 L 368.953,115.718 L 365.275,115.648 L 361.548,115.619 L 361.548,115.619 L 357.869,115.648 L 354.19,115.718 L 350.536,115.874 L 346.882,116.058 L 343.301,116.284 L 339.744,116.581 L 336.261,116.907 L 332.85,117.289 L 329.464,117.727 L 326.248,118.223 L 323.057,118.746 L 319.939,119.326 L 316.967,119.949 L 314.141,120.614 L 311.363,121.307 L 308.757,122.043 L 306.321,122.835 L 303.958,123.656 L 301.765,124.476 L 299.768,125.353 L 297.867,126.273 L 296.186,127.193 L 294.652,128.141 L 293.239,129.117 L 292.069,130.107 L 291.071,131.126 L 290.194,132.145 L 289.56,133.163 L 289.097,134.224 L 288.805,135.243 L 288.732,136.304 L 288.732,136.304 L 288.805,137.337 L 289.097,138.384 L 289.56,139.417 L 290.194,140.464 L 291.071,141.482 L 292.069,142.487 L 293.239,143.463 L 294.652,144.454 L 296.186,145.416 L 297.867,146.335 L 299.768,147.227 L 301.765,148.104 L 303.958,148.953 L 306.321,149.759 L 308.757,150.537 L 311.363,151.287 L 314.141,151.995 L 316.967,152.66 L 319.939,153.282 L 323.057,153.834 L 326.248,154.386 L 329.464,154.853 L 332.85,155.291 L 336.261,155.687 L 339.744,156.027 L 343.301,156.31 L 346.882,156.551 L 350.536,156.734 L 354.19,156.862 L 357.869,156.961 L 361.548,156.975 L 361.548,156.975 L 365.275,156.961 L 368.953,156.862 L 372.608,156.734 L 376.237,156.551 L 379.818,156.31 L 383.375,156.027 L 386.883,155.687 L 390.294,155.291 L 393.631,154.853 L 396.896,154.386 L 400.087,153.834 L 403.181,153.282 L 406.129,152.66 L 409.003,151.995 L 411.756,151.287 L 414.338,150.537 L 416.823,149.759 L 419.162,148.953 L 421.354,148.104 L 423.376,147.227 L 425.276,146.335 L 426.982,145.416 L 428.492,144.454 L 429.881,143.463 L 431.074,142.487 L 432.098,141.482 L 432.926,140.464 L 433.559,139.417 L 434.022,138.384 L 434.314,137.337 L 434.412,136.304z"/>
    <path style="fill: #b6c7c9" d="M 374.094 113.143 L 422.304,109.578 L 421.695,108.8 L 420.94,108.007 L 420.112,107.229 L 419.113,106.479 L 418.041,105.758 L 416.823,105.022 L 415.556,104.329 L 414.095,103.664 L 412.609,103.013 L 411.001,102.391 L 409.271,101.796 L 407.468,101.245 L 405.568,100.707 L 403.595,100.183 L 401.549,99.7165 L 399.429,99.292 L 397.285,98.8676 L 395.02,98.5139 L 392.73,98.1885 L 390.416,97.8913 L 388.004,97.6367 L 385.592,97.4386 L 383.156,97.2547 L 380.695,97.1273 L 378.211,97.0424 L 375.701,97 L 373.217,97 L 370.707,97.0424 L 368.198,97.099 L 365.762,97.2122 L 363.302,97.3962 L 360.865,97.5801 L 358.454,97.8348 L 356.091,98.1036 L 353.801,98.4148 L 351.559,98.7685 L 349.343,99.1647 L 347.199,99.575 L 345.177,100.042 L 343.179,100.537 L 341.255,101.061 L 339.428,101.612 L 337.698,102.207 L 336.066,102.829 L 334.507,103.466 L 333.045,104.131 L 331.681,104.824 L 330.438,105.531 L 329.366,106.281 L 328.319,107.003 L 327.417,107.781 L 326.662,108.545 L 326.029,109.337 L 325.493,110.13 L 374.094,113.143z"/>
    <path style="fill: none; fill-opacity:0; stroke-width: 0.02; stroke: #6c8f93" d="M 422.304 109.55 L 421.671,108.757 L 420.94,107.979 L 420.087,107.201 L 419.113,106.465 L 417.992,105.73 L 416.799,105.008 L 415.508,104.315 L 414.046,103.65 L 412.536,103.013 L 410.976,102.391 L 409.222,101.768 L 407.468,101.216 L 405.544,100.679 L 403.571,100.183 L 401.549,99.6882 L 399.429,99.2637 L 397.261,98.8676 L 394.995,98.4997 L 392.706,98.1885 L 390.416,97.8913 L 388.004,97.6367 L 385.568,97.4386 L 383.132,97.2547 L 380.671,97.1273 L 378.211,97.0424 L 375.677,97 L 373.192,97 L 370.707,97.0424 L 368.222,97.099 L 365.738,97.2122 L 363.302,97.3962 L 360.865,97.5659 L 358.478,97.8065 L 356.139,98.1036 L 353.801,98.4148 L 351.584,98.7685 L 349.367,99.1647 L 347.248,99.575 L 345.177,100.028 L 343.204,100.537 L 341.279,101.061 L 339.452,101.598 L 337.722,102.192 L 336.066,102.801 L 334.507,103.452 L 333.045,104.117 L 331.729,104.796 L 330.463,105.531 L 329.366,106.239 L 328.343,106.989 L 327.466,107.739 L 326.662,108.517 L 326.029,109.309 L 325.517,110.101"/>
    <path style="fill: #b6c7c9" d="M 308.538 121.533 L 332.85,109.153 L 331.34,108.644 L 329.756,108.163 L 328.148,107.739 L 326.492,107.314 L 324.811,106.946 L 323.057,106.607 L 321.254,106.324 L 319.476,106.055 L 317.6,105.843 L 315.748,105.659 L 313.848,105.531 L 311.948,105.432 L 310.048,105.376 L 308.148,105.376 L 306.223,105.404 L 304.323,105.489 L 302.423,105.588 L 300.547,105.744 L 298.696,105.942 L 296.869,106.168 L 295.041,106.437 L 293.287,106.748 L 291.533,107.102 L 289.853,107.484 L 288.22,107.908 L 286.661,108.375 L 285.102,108.87 L 283.64,109.38 L 282.252,109.946 L 280.888,110.526 L 279.621,111.148 L 278.451,111.771 L 277.331,112.45 L 276.308,113.129 L 275.333,113.837 L 274.481,114.572 L 273.677,115.322 L 272.995,116.072 L 272.386,116.85 L 271.898,117.642 L 271.509,118.435 L 271.167,119.255 L 270.924,120.076 L 270.826,120.882 L 270.778,121.689 L 270.851,122.51 L 270.997,123.344 L 271.289,124.137 L 308.538,121.533z"/>
    <path style="fill: none; fill-opacity:0; stroke-width: 0.02; stroke: #6c8f93" d="M 332.728 109.111 L 331.218,108.602 L 329.683,108.135 L 328.075,107.696 L 326.394,107.3 L 324.665,106.918 L 322.935,106.593 L 321.157,106.295 L 319.33,106.041 L 317.502,105.843 L 315.602,105.659 L 313.727,105.531 L 311.851,105.432 L 309.951,105.376 L 308.002,105.376 L 306.15,105.404 L 304.25,105.489 L 302.301,105.588 L 300.45,105.758 L 298.623,105.942 L 296.747,106.196 L 294.968,106.451 L 293.214,106.777 L 291.485,107.13 L 289.779,107.512 L 288.147,107.937 L 286.588,108.404 L 285.078,108.885 L 283.616,109.422 L 282.179,109.96 L 280.888,110.568 L 279.596,111.163 L 278.403,111.813 L 277.307,112.464 L 276.259,113.143 L 275.333,113.865 L 274.481,114.601 L 273.677,115.35 L 272.97,116.1 L 272.386,116.893 L 271.898,117.657 L 271.46,118.463 L 271.167,119.284 L 270.924,120.09 L 270.826,120.897 L 270.778,121.717 L 270.9,122.524 L 271.046,123.344 L 271.289,124.165"/>
    <path style="fill: #b6c7c9" d="M 301.765 150.453 L 262.641,150.014 L 262.641,150.764 L 262.714,151.471 L 262.909,152.221 L 263.226,152.929 L 263.591,153.65 L 264.054,154.386 L 264.663,155.065 L 265.296,155.758 L 266.1,156.437 L 266.953,157.088 L 267.854,157.753 L 268.926,158.376 L 269.998,158.984 L 271.216,159.564 L 272.459,160.13 L 273.799,160.668 L 275.236,161.163 L 276.697,161.644 L 278.232,162.125 L 279.84,162.535 L 281.497,162.931 L 283.226,163.313 L 284.98,163.625 L 286.734,163.936 L 288.586,164.205 L 290.462,164.431 L 292.362,164.615 L 294.286,164.785 L 296.211,164.912 L 298.16,164.997 L 300.133,165.04 L 302.131,165.04 L 304.055,165.011 L 306.028,164.955 L 307.977,164.87 L 309.902,164.742 L 311.851,164.558 L 313.702,164.346 L 315.602,164.12 L 317.381,163.823 L 319.183,163.54 L 320.937,163.186 L 322.594,162.804 L 324.275,162.394 L 325.81,161.955 L 327.344,161.502 L 301.765,150.453z"/>
    <path style="fill: none; fill-opacity:0; stroke-width: 0.02; stroke: #6c8f93" d="M 262.69 150.014 L 262.617,150.736 L 262.763,151.471 L 262.909,152.193 L 263.226,152.929 L 263.591,153.636 L 264.078,154.358 L 264.663,155.065 L 265.345,155.758 L 266.1,156.423 L 266.904,157.088 L 267.854,157.725 L 268.853,158.362 L 269.998,158.956 L 271.167,159.564 L 272.434,160.102 L 273.75,160.639 L 275.163,161.163 L 276.624,161.644 L 278.159,162.097 L 279.767,162.521 L 281.424,162.917 L 283.104,163.285 L 284.858,163.625 L 286.686,163.936 L 288.488,164.176 L 290.34,164.403 L 292.24,164.615 L 294.189,164.757 L 296.113,164.912 L 298.038,164.969 L 300.011,165.04 L 301.984,165.04 L 303.933,165.04 L 305.882,164.969 L 307.831,164.87 L 309.756,164.742 L 311.705,164.573 L 313.556,164.375 L 315.456,164.134 L 317.259,163.851 L 319.013,163.54 L 320.767,163.2 L 322.448,162.832 L 324.129,162.436 L 325.712,161.998 L 327.198,161.545"/>
    <path style="fill: #b6c7c9" d="M 426.251 118.902 L 460.673,122.991 L 461.258,122.382 L 461.696,121.774 L 462.111,121.151 L 462.354,120.515 L 462.598,119.878 L 462.646,119.241 L 462.646,118.59 L 462.598,117.968 L 462.403,117.331 L 462.135,116.695 L 461.745,116.072 L 461.282,115.449 L 460.746,114.855 L 460.113,114.247 L 459.382,113.667 L 458.554,113.087 L 457.628,112.521 L 456.678,111.983 L 455.63,111.46 L 454.51,110.964 L 453.316,110.455 L 452.001,110.002 L 450.685,109.564 L 449.248,109.153 L 447.811,108.757 L 446.3,108.404 L 444.741,108.05 L 443.109,107.739 L 441.452,107.456 L 439.747,107.201 L 437.993,106.989 L 436.263,106.805 L 434.436,106.635 L 432.633,106.508 L 430.806,106.409 L 428.955,106.366 L 427.128,106.324 L 425.301,106.324 L 423.449,106.366 L 421.598,106.423 L 419.795,106.522 L 417.968,106.649 L 416.165,106.805 L 414.387,107.003 L 426.251,118.902z"/>
    <path style="fill: none; fill-opacity:0; stroke-width: 0.02; stroke: #6c8f93" d="M 457.506 125.297 L 460.649,123.019 L 461.234,122.425 L 461.696,121.802 L 462.062,121.18 L 462.354,120.543 L 462.549,119.906 L 462.622,119.284 L 462.646,118.619 L 462.573,117.996 L 462.403,117.36 L 462.135,116.723 L 461.745,116.1 L 461.282,115.478 L 460.771,114.869 L 460.137,114.289 L 459.382,113.681 L 458.554,113.101 L 457.701,112.535 L 456.702,111.997 L 455.655,111.474 L 454.534,110.964 L 453.341,110.483 L 452.074,110.031 L 450.734,109.578 L 449.345,109.153 L 447.859,108.771 L 446.349,108.404 L 444.79,108.064 L 443.158,107.781 L 441.501,107.484 L 439.82,107.215 L 438.09,106.989 L 436.312,106.805 L 434.558,106.635 L 432.755,106.508 L 430.928,106.423 L 429.077,106.366 L 427.225,106.324 L 425.35,106.324 L 423.522,106.366 L 421.671,106.423 L 419.844,106.508 L 418.041,106.635 L 416.263,106.791 L 414.484,106.989"/>
    <path style="fill: #b6c7c9" d="M 431.147 135.526 L 469.906,140.704 L 470.686,140.025 L 471.319,139.36 L 471.904,138.653 L 472.367,137.945 L 472.683,137.238 L 472.903,136.531 L 472.976,135.795 L 472.976,135.073 L 472.829,134.352 L 472.61,133.644 L 472.22,132.923 L 471.758,132.229 L 471.149,131.536 L 470.491,130.843 L 469.663,130.178 L 468.737,129.541 L 467.738,128.89 L 466.593,128.254 L 465.375,127.66 L 431.147,135.526z"/>
    <path style="fill: none; fill-opacity:0; stroke-width: 0.02; stroke: #6c8f93" d="M 464.985 143.053 L 469.857,140.733 L 470.588,140.068 L 471.319,139.36 L 471.879,138.667 L 472.342,137.945 L 472.659,137.238 L 472.903,136.531 L 473,135.795 L 472.976,135.073 L 472.829,134.338 L 472.561,133.63 L 472.22,132.923 L 471.758,132.215 L 471.149,131.508 L 470.466,130.815 L 469.614,130.135 L 468.712,129.499 L 467.641,128.848 L 466.544,128.225 L 465.302,127.631 L 457.506,125.297"/>
    <path style="fill: #b6c7c9" d="M 429.515 149.193 L 417.286,168.845 L 419.089,169.157 L 420.916,169.44 L 422.743,169.652 L 424.643,169.822 L 426.494,169.949 L 428.346,170.006 L 430.27,170.006 L 432.146,169.949 L 433.998,169.864 L 435.874,169.694 L 437.701,169.482 L 439.528,169.242 L 441.33,168.93 L 443.109,168.548 L 444.814,168.138 L 446.519,167.671 L 448.176,167.162 L 449.784,166.596 L 451.343,166.016 L 452.829,165.351 L 454.242,164.658 L 455.606,163.936 L 456.922,163.158 L 458.164,162.351 L 459.285,161.517 L 460.357,160.639 L 461.38,159.748 L 462.281,158.814 L 463.085,157.88 L 463.84,156.904 L 464.474,155.9 L 465.058,154.881 L 465.521,153.862 L 465.911,152.815 L 466.155,151.783 L 466.374,150.721 L 466.422,149.66 L 466.422,148.599 L 466.325,147.538 L 466.13,146.477 L 465.838,145.43 L 465.472,144.397 L 464.985,143.378 L 429.515,149.193z"/>
    <path style="fill: none; fill-opacity:0; stroke-width: 0.02; stroke: #6c8f93" d="M 417.383 168.86 L 419.21,169.199 L 421.013,169.468 L 422.865,169.694 L 424.716,169.836 L 426.616,169.949 L 428.468,170.006 L 430.344,170.034 L 432.219,169.949 L 434.12,169.864 L 435.971,169.694 L 437.798,169.482 L 439.625,169.213 L 441.428,168.902 L 443.182,168.534 L 444.936,168.11 L 446.617,167.657 L 448.249,167.162 L 449.833,166.596 L 451.392,165.973 L 452.878,165.323 L 454.291,164.615 L 455.655,163.894 L 456.97,163.144 L 458.188,162.323 L 459.358,161.474 L 460.381,160.625 L 461.404,159.706 L 462.305,158.772 L 463.109,157.838 L 463.84,156.862 L 464.498,155.843 L 465.083,154.839 L 465.521,153.806 L 465.911,152.773 L 466.203,151.74 L 466.374,150.679 L 466.422,149.618 L 466.422,148.557 L 466.301,147.496 L 466.13,146.434 L 465.813,145.387 L 465.399,144.355 L 464.985,143.336"/>
    <path style="fill: #b6c7c9" d="M 274.578 138.03 L 272.727,124.688 L 271.362,124.759 L 270.071,124.844 L 268.707,124.985 L 267.392,125.155 L 266.1,125.353 L 264.834,125.608 L 263.591,125.849 L 262.373,126.174 L 261.155,126.485 L 260.01,126.839 L 258.889,127.235 L 257.818,127.645 L 256.77,128.084 L 255.82,128.565 L 254.87,129.046 L 253.993,129.555 L 253.165,130.093 L 252.409,130.659 L 251.654,131.225 L 250.996,131.833 L 250.436,132.456 L 249.9,133.078 L 249.389,133.701 L 248.999,134.352 L 248.682,135.017 L 248.39,135.682 L 248.171,136.361 L 248.073,137.054 L 248,137.719 L 248,138.398 L 248.073,139.063 L 248.219,139.756 L 248.439,140.421 L 248.682,141.086 L 249.048,141.751 L 249.437,142.402 L 249.925,143.039 L 250.46,143.661 L 251.07,144.27 L 251.727,144.878 L 252.482,145.43 L 253.238,145.996 L 254.09,146.533 L 254.992,147.043 L 255.917,147.538 L 256.916,147.991 L 257.964,148.429 L 259.036,148.854 L 260.181,149.236 L 261.301,149.59 L 262.519,149.915 L 274.578,138.03z"/>
    <path style="fill: none; fill-opacity:0; stroke-width: 0.02; stroke: #6c8f93" d="M 272.727 124.688 L 271.435,124.759 L 270.096,124.844 L 268.78,124.985 L 267.513,125.141 L 266.222,125.339 L 264.955,125.551 L 263.737,125.82 L 262.544,126.103 L 261.35,126.414 L 260.254,126.768 L 259.109,127.15 L 258.061,127.546 L 257.038,127.971 L 256.064,128.438 L 255.089,128.919 L 254.236,129.4 L 253.384,129.937 L 252.629,130.475 L 251.898,131.041 L 251.264,131.621 L 250.655,132.215 L 250.071,132.81 L 249.583,133.432 L 249.145,134.069 L 248.78,134.72 L 248.512,135.37 L 248.244,136.035 L 248.097,136.7 L 248,137.365 L 248,138.03 L 248,138.695 L 248.146,139.36 L 248.292,140.025 L 248.512,140.69 L 248.828,141.341 L 249.145,141.978 L 249.583,142.6 L 250.119,143.251 L 250.655,143.859 L 251.264,144.44 L 251.947,145.02 L 252.653,145.586 L 253.408,146.123 L 254.236,146.647 L 255.138,147.142 L 256.088,147.623 L 257.062,148.076 L 258.11,148.5 L 259.133,148.91 L 260.254,149.278 L 261.399,149.618 L 262.568,149.943"/>
    <path style="fill: #b6c7c9" d="M 373.265 159.451 L 317.819,160.993 L 318.185,161.771 L 318.647,162.564 L 319.281,163.328 L 320.085,164.077 L 320.937,164.799 L 321.985,165.535 L 323.13,166.242 L 324.421,166.95 L 325.858,167.615 L 327.393,168.28 L 329.001,168.902 L 330.779,169.51 L 332.631,170.091 L 334.604,170.656 L 336.675,171.166 L 338.819,171.675 L 341.108,172.128 L 343.398,172.581 L 345.81,172.977 L 348.271,173.359 L 350.853,173.67 L 353.435,173.981 L 356.042,174.236 L 358.77,174.462 L 361.499,174.646 L 364.252,174.788 L 366.98,174.901 L 369.782,174.958 L 372.608,175 L 375.385,175 L 378.211,174.943 L 380.988,174.859 L 383.741,174.731 L 386.469,174.547 L 389.197,174.349 L 391.828,174.109 L 394.46,173.812 L 397.017,173.529 L 399.551,173.175 L 401.987,172.779 L 404.326,172.354 L 406.616,171.902 L 408.833,171.406 L 410.952,170.897 L 412.974,170.359 L 414.85,169.793 L 416.677,169.199 L 418.358,168.577 L 419.966,167.926 L 421.452,167.261 L 422.767,166.596 L 423.985,165.888 L 425.106,165.153 L 426.056,164.431 L 373.265,159.451z"/>
    <path style="fill: none; fill-opacity:0; stroke-width: 0.02; stroke: #6c8f93" d="M 317.868 161.021 L 318.185,161.785 L 318.672,162.564 L 319.281,163.328 L 320.085,164.077 L 320.986,164.827 L 321.985,165.535 L 323.154,166.242 L 324.421,166.95 L 325.858,167.615 L 327.393,168.28 L 329.001,168.902 L 330.779,169.51 L 332.68,170.091 L 334.604,170.656 L 336.675,171.166 L 338.819,171.675 L 341.108,172.128 L 343.398,172.566 L 345.81,172.977 L 348.271,173.359 L 350.804,173.67 L 353.387,173.981 L 356.018,174.236 L 358.746,174.462 L 361.45,174.646 L 364.203,174.774 L 366.956,174.901 L 369.733,174.958 L 372.534,175 L 375.336,174.986 L 378.113,174.943 L 380.89,174.83 L 383.692,174.731 L 386.42,174.547 L 389.1,174.335 L 391.78,174.109 L 394.386,173.84 L 396.944,173.529 L 399.454,173.175 L 401.865,172.779 L 404.253,172.354 L 406.543,171.916 L 408.735,171.449 L 410.855,170.925 L 412.852,170.388 L 414.801,169.822 L 416.604,169.199 L 418.309,168.591 L 419.917,167.94 L 421.354,167.303 L 422.718,166.596 L 423.937,165.903 L 425.008,165.181 L 426.007,164.445"/>
  </g>
  <text font-size="12.8016" style="fill: #0000ff;text-anchor:middle;font-family:sans-serif;font-style:normal;font-weight:700" x="368.739" y="136.504">
    <tspan x="368.739" y="136.504">DockerHub</tspan>
  </text>
  <text font-size="12.7998" style="fill: #000000;text-anchor:start;font-family:sans-serif;font-style:normal;font-weight:normal" x="368.739" y="136.504">
    <tspan x="368.739" y="136.504"></tspan>
  </text>
  <g>
    <rect style="fill: #ffa500" x="183" y="274" width="129" height="64"/>
    <rect style="fill: none; fill-opacity:0; stroke-width: 2; stroke: #000000" x="183" y="274" width="129" height="64"/>
    <text font-size="12.8" style="fill: #000000;text-anchor:middle;font-family:sans-serif;font-style:normal;font-weight:700" x="247.5" y="302.8">
      <tspan x="247.5" y="302.8">Jenkins</tspan>
      <tspan x="247.5" y="318.8"></tspan>
    </text>
  </g>
  <text font-size="12.7998" style="fill: #000000;text-anchor:start;font-family:sans-serif;font-style:normal;font-weight:normal" x="247.5" y="306">
    <tspan x="247.5" y="306"></tspan>
  </text>
  <text font-size="12.7998" style="fill: #000000;text-anchor:middle;font-family:sans-serif;font-style:normal;font-weight:normal" x="247.5" y="306">
    <tspan x="247.5" y="306"></tspan>
    <tspan x="247.5" y="322">jenkins:1.609.3</tspan>
  </text>
  <g>
    <rect style="fill: #ffa500" x="776.3" y="277.3" width="129" height="64"/>
    <rect style="fill: none; fill-opacity:0; stroke-width: 2; stroke: #000000" x="776.3" y="277.3" width="129" height="64"/>
    <text font-size="12.8" style="fill: #000000;text-anchor:middle;font-family:sans-serif;font-style:normal;font-weight:700" x="840.8" y="306.1">
      <tspan x="840.8" y="306.1">Tomcat</tspan>
      <tspan x="840.8" y="322.1"></tspan>
    </text>
  </g>
  <text font-size="12.7998" style="fill: #000000;text-anchor:middle;font-family:sans-serif;font-style:normal;font-weight:normal" x="840.8" y="309.3">
    <tspan x="840.8" y="309.3"></tspan>
    <tspan x="840.8" y="325.3">tomcat:jre8</tspan>
  </text>
  <g>
    <rect style="fill: #7f7f7f" x="34.6" y="273.6" width="129" height="64"/>
    <rect style="fill: none; fill-opacity:0; stroke-width: 2; stroke: #000000" x="34.6" y="273.6" width="129" height="64"/>
    <text font-size="12.8" style="fill: #000000;text-anchor:middle;font-family:sans-serif;font-style:normal;font-weight:700" x="99.1" y="302.4">
      <tspan x="99.1" y="302.4">Vagrant</tspan>
      <tspan x="99.1" y="318.4"></tspan>
    </text>
  </g>
  <text font-size="12.7998" style="fill: #000000;text-anchor:middle;font-family:sans-serif;font-style:normal;font-weight:normal" x="99.1" y="305.6">
    <tspan x="99.1" y="305.6"></tspan>
    <tspan x="99.1" y="321.6">vagrant:1.7.3</tspan>
  </text>
  <g>
    <rect style="fill: #1e90ff" x="34.002" y="383.065" width="977.598" height="503.936"/>
    <rect style="fill: none; fill-opacity:0; stroke-width: 2; stroke: #0000ff" x="34.002" y="383.065" width="977.598" height="503.936"/>
    <text font-size="12.7998" style="fill: #000000;text-anchor:start;font-family:sans-serif;font-style:normal;font-weight:normal" x="43.002" y="639.833">
      <tspan x="43.002" y="639.833"></tspan>
    </text>
  </g>
  <text font-size="12.7998" style="fill: #000000;text-anchor:start;font-family:sans-serif;font-style:normal;font-weight:normal" x="774.502" y="713.033">
    <tspan x="774.502" y="713.033"></tspan>
  </text>
  <text font-size="12.8" style="fill: #ffffff;text-anchor:start;font-family:sans-serif;font-style:normal;font-weight:700" x="34.002" y="395.865">
    <tspan x="34.002" y="395.865"> </tspan>
    <tspan x="34.002" y="411.865">  VirtualBox</tspan>
  </text>
  <text font-size="12.7998" style="fill: #ffffff;text-anchor:start;font-family:sans-serif;font-style:normal;font-weight:normal" x="34.002" y="395.865">
    <tspan x="34.002" y="395.865">  </tspan>
    <tspan x="34.002" y="411.865">  </tspan>
    <tspan x="34.002" y="427.865">  virtualbox 4.3.13</tspan>
  </text>
  <text font-size="12.7998" style="fill: #000000;text-anchor:start;font-family:sans-serif;font-style:normal;font-weight:normal" x="24" y="371">
    <tspan x="24" y="371"></tspan>
  </text>
  <g>
    <rect style="fill: #90ee90" x="66" y="440.065" width="922.6" height="425.936"/>
    <rect style="fill: none; fill-opacity:0; stroke-width: 2; stroke: #008200" x="66" y="440.065" width="922.6" height="425.936"/>
    <text font-size="12.7998" style="fill: #000000;text-anchor:middle;font-family:sans-serif;font-style:normal;font-weight:normal" x="527.3" y="657.833">
      <tspan x="527.3" y="657.833"></tspan>
    </text>
  </g>
  <text font-size="12.8" style="fill: #ffffff;text-anchor:start;font-family:sans-serif;font-style:normal;font-weight:700" x="66" y="452.865">
    <tspan x="66" y="452.865"> </tspan>
    <tspan x="66" y="468.865">  CoreOS</tspan>
  </text>
  <g>
    <rect style="fill: #ffa500" x="96.5" y="505.365" width="239.5" height="64"/>
    <rect style="fill: none; fill-opacity:0; stroke-width: 2; stroke: #000000" x="96.5" y="505.365" width="239.5" height="64"/>
    <text font-size="12.8" style="fill: #000000;text-anchor:middle;font-family:sans-serif;font-style:normal;font-weight:700" x="216.25" y="534.165">
      <tspan x="216.25" y="534.165">Jenkins</tspan>
      <tspan x="216.25" y="550.165"></tspan>
    </text>
  </g>
  <text font-size="12.7998" style="fill: #000000;text-anchor:middle;font-family:sans-serif;font-style:normal;font-weight:normal" x="216.25" y="537.365">
    <tspan x="216.25" y="537.365"></tspan>
    <tspan x="216.25" y="553.365">jtechnologies/continuousdelivery-jenkins</tspan>
  </text>
  <g>
    <line style="fill: none; fill-opacity:0; stroke-width: 2; stroke: #ff0000" x1="215.25" y1="338" x2="216.184" y2="494.365"/>
    <polygon style="fill: #ff0000" points="211.184,494.395 216.244,504.365 221.184,494.335 "/>
    <polygon style="fill: none; fill-opacity:0; stroke-width: 2; stroke: #ff0000" points="211.184,494.395 216.244,504.365 221.184,494.335 "/>
  </g>
  <g>
    <rect style="fill: #e5e5e5" x="300" y="492.529" width="34.9" height="24.5778"/>
    <rect style="fill: none; fill-opacity:0; stroke-width: 2; stroke: #000000" x="300" y="492.529" width="34.9" height="24.5778"/>
    <text font-size="9.03097" style="fill: #000000;text-anchor:middle;font-family:sans-serif;font-style:normal;font-weight:normal" x="317.45" y="502.579">
      <tspan x="317.45" y="502.579">8080</tspan>
      <tspan x="317.45" y="513.868">8080</tspan>
    </text>
  </g>
  <g>
    <rect style="fill: #ffa500" x="98.1" y="635.29" width="239.5" height="64"/>
    <rect style="fill: none; fill-opacity:0; stroke-width: 2; stroke: #000000" x="98.1" y="635.29" width="239.5" height="64"/>
    <text font-size="12.8" style="fill: #000000;text-anchor:middle;font-family:sans-serif;font-style:normal;font-weight:700" x="217.85" y="664.09">
      <tspan x="217.85" y="664.09">Nexus</tspan>
      <tspan x="217.85" y="680.09"></tspan>
    </text>
  </g>
  <text font-size="12.7998" style="fill: #000000;text-anchor:middle;font-family:sans-serif;font-style:normal;font-weight:normal" x="217.85" y="667.29">
    <tspan x="217.85" y="667.29"> </tspan>
    <tspan x="217.85" y="683.29">sonatype/nexus:2.11.3-01</tspan>
  </text>
  <g>
    <rect style="fill: #e5e5e5" x="302.1" y="623.29" width="34.9" height="24.5778"/>
    <rect style="fill: none; fill-opacity:0; stroke-width: 2; stroke: #000000" x="302.1" y="623.29" width="34.9" height="24.5778"/>
    <text font-size="9.03097" style="fill: #000000;text-anchor:middle;font-family:sans-serif;font-style:normal;font-weight:normal" x="319.55" y="633.34">
      <tspan x="319.55" y="633.34">8081</tspan>
      <tspan x="319.55" y="644.629">8081</tspan>
    </text>
  </g>
  <g>
    <rect style="fill: #ffa500" x="98.1" y="765.04" width="239.5" height="64"/>
    <rect style="fill: none; fill-opacity:0; stroke-width: 2; stroke: #000000" x="98.1" y="765.04" width="239.5" height="64"/>
    <text font-size="12.8" style="fill: #000000;text-anchor:middle;font-family:sans-serif;font-style:normal;font-weight:700" x="217.85" y="793.84">
      <tspan x="217.85" y="793.84">Sonar</tspan>
      <tspan x="217.85" y="809.84"></tspan>
    </text>
  </g>
  <text font-size="12.7998" style="fill: #000000;text-anchor:middle;font-family:sans-serif;font-style:normal;font-weight:normal" x="217.85" y="797.04">
    <tspan x="217.85" y="797.04"> </tspan>
    <tspan x="217.85" y="813.04"> sonarqube:5.1.1</tspan>
  </text>
  <g>
    <rect style="fill: #e5e5e5" x="302.1" y="751.04" width="34.9" height="24.5778"/>
    <rect style="fill: none; fill-opacity:0; stroke-width: 2; stroke: #000000" x="302.1" y="751.04" width="34.9" height="24.5778"/>
    <text font-size="9.03097" style="fill: #000000;text-anchor:middle;font-family:sans-serif;font-style:normal;font-weight:normal" x="319.55" y="761.09">
      <tspan x="319.55" y="761.09">9000</tspan>
      <tspan x="319.55" y="772.379">9000</tspan>
    </text>
  </g>
  <g>
    <rect style="fill: #ffa500" x="721.1" y="507.04" width="239.5" height="64"/>
    <rect style="fill: none; fill-opacity:0; stroke-width: 2; stroke: #000000" x="721.1" y="507.04" width="239.5" height="64"/>
    <text font-size="12.8" style="fill: #000000;text-anchor:middle;font-family:sans-serif;font-style:normal;font-weight:700" x="840.85" y="535.84">
      <tspan x="840.85" y="535.84">SportsQuest</tspan>
      <tspan x="840.85" y="551.84"></tspan>
    </text>
  </g>
  <text font-size="12.7998" style="fill: #000000;text-anchor:middle;font-family:sans-serif;font-style:normal;font-weight:normal" x="840.85" y="539.04">
    <tspan x="840.85" y="539.04"></tspan>
    <tspan x="840.85" y="555.04">ordina-cd/sportsquest:$PIPELINE_ID</tspan>
  </text>
  <g>
    <rect style="fill: #ffa500" x="720.1" y="630.04" width="239.5" height="64"/>
    <rect style="fill: none; fill-opacity:0; stroke-width: 2; stroke: #000000" x="720.1" y="630.04" width="239.5" height="64"/>
    <text font-size="12.8" style="fill: #000000;text-anchor:middle;font-family:sans-serif;font-style:normal;font-weight:700" x="839.85" y="658.84">
      <tspan x="839.85" y="658.84">SportsQuest</tspan>
      <tspan x="839.85" y="674.84"></tspan>
    </text>
  </g>
  <text font-size="12.7998" style="fill: #000000;text-anchor:middle;font-family:sans-serif;font-style:normal;font-weight:normal" x="839.85" y="662.04">
    <tspan x="839.85" y="662.04"></tspan>
    <tspan x="839.85" y="678.04">ordina-cd/sportsquest:prod</tspan>
  </text>
  <g>
    <rect style="fill: #e5e5e5" x="926.1" y="493.04" width="34.9" height="24.5778"/>
    <rect style="fill: none; fill-opacity:0; stroke-width: 2; stroke: #000000" x="926.1" y="493.04" width="34.9" height="24.5778"/>
    <text font-size="9.03097" style="fill: #000000;text-anchor:middle;font-family:sans-serif;font-style:normal;font-weight:normal" x="943.55" y="503.09">
      <tspan x="943.55" y="503.09">8088</tspan>
      <tspan x="943.55" y="514.379">8080</tspan>
    </text>
  </g>
  <g>
    <rect style="fill: #e5e5e5" x="924.1" y="618.04" width="34.9" height="24.5778"/>
    <rect style="fill: none; fill-opacity:0; stroke-width: 2; stroke: #000000" x="924.1" y="618.04" width="34.9" height="24.5778"/>
    <text font-size="9.03097" style="fill: #000000;text-anchor:middle;font-family:sans-serif;font-style:normal;font-weight:normal" x="941.55" y="628.09">
      <tspan x="941.55" y="628.09">9999</tspan>
      <tspan x="941.55" y="639.379">8080</tspan>
    </text>
  </g>
  <g>
    <line style="fill: none; fill-opacity:0; stroke-width: 2; stroke: #ff0000" x1="840.8" y1="341.3" x2="840.847" y2="496.04"/>
    <polygon style="fill: #ff0000" points="835.847,496.042 840.85,506.04 845.847,496.038 "/>
    <polygon style="fill: none; fill-opacity:0; stroke-width: 2; stroke: #ff0000" points="835.847,496.042 840.85,506.04 845.847,496.038 "/>
  </g>
  <g>
    <path style="fill: none; fill-opacity:0; stroke-width: 2; stroke: #ff0000" d="M 350.804 175 C 350.804,266 247.5,182 247.5,263"/>
    <polygon style="fill: #ff0000" points="242.5,263 247.5,273 252.5,263 "/>
    <polygon style="fill: none; fill-opacity:0; stroke-width: 2; stroke: #ff0000" points="242.5,263 247.5,273 252.5,263 "/>
  </g>
  <g>
    <path style="fill: none; fill-opacity:0; stroke-width: 2; stroke: #ff0000" d="M 394.46 175 C 395.6,272.99 842.6,183.99 841.012,266.302"/>
    <polygon style="fill: #ff0000" points="836.013,266.206 840.819,276.3 846.011,266.398 "/>
    <polygon style="fill: none; fill-opacity:0; stroke-width: 2; stroke: #ff0000" points="836.013,266.206 840.819,276.3 846.011,266.398 "/>
  </g>
  <g>
    <polyline style="fill: none; fill-opacity:0; stroke-width: 2; stroke: #ff0000" points="372.632,175 372.632,595.99 217.85,595.99 217.85,624.29 "/>
    <polygon style="fill: #ff0000" points="212.85,624.29 217.85,634.29 222.85,624.29 "/>
    <polygon style="fill: none; fill-opacity:0; stroke-width: 2; stroke: #ff0000" points="212.85,624.29 217.85,634.29 222.85,624.29 "/>
  </g>
  <g>
    <line style="fill: none; fill-opacity:0; stroke-width: 2; stroke: #ff0000" x1="840.85" y1="571.04" x2="840.036" y2="619.042"/>
    <polygon style="fill: #ff0000" points="835.037,618.957 839.867,629.04 845.036,619.126 "/>
    <polygon style="fill: none; fill-opacity:0; stroke-width: 2; stroke: #ff0000" points="835.037,618.957 839.867,629.04 845.036,619.126 "/>
  </g>
  <g>
    <polyline style="fill: none; fill-opacity:0; stroke-width: 2; stroke: #ff0000" points="372.632,175 372.632,730.99 217.85,730.99 217.85,754.04 "/>
    <polygon style="fill: #ff0000" points="212.85,754.04 217.85,764.04 222.85,754.04 "/>
    <polygon style="fill: none; fill-opacity:0; stroke-width: 2; stroke: #ff0000" points="212.85,754.04 217.85,764.04 222.85,754.04 "/>
  </g>
  <g>
    <rect style="fill: #ffa500" x="404.002" y="507.026" width="253.798" height="64"/>
    <rect style="fill: none; fill-opacity:0; stroke-width: 2; stroke: #000000" x="404.002" y="507.026" width="253.798" height="64"/>
    <text font-size="12.8" style="fill: #000000;text-anchor:middle;font-family:sans-serif;font-style:normal;font-weight:700" x="530.901" y="535.826">
      <tspan x="530.901" y="535.826">Protractor</tspan>
      <tspan x="530.901" y="551.826"></tspan>
    </text>
  </g>
  <text font-size="12.7998" style="fill: #000000;text-anchor:middle;font-family:sans-serif;font-style:normal;font-weight:normal" x="530.901" y="539.026">
    <tspan x="530.901" y="539.026"></tspan>
    <tspan x="530.901" y="555.026">jtechnologies/continuousdelivery-protractor</tspan>
  </text>
  <g>
    <rect style="fill: #e5e5e5" x="621.8" y="494.19" width="34.9" height="24.5778"/>
    <rect style="fill: none; fill-opacity:0; stroke-width: 2; stroke: #000000" x="621.8" y="494.19" width="34.9" height="24.5778"/>
    <text font-size="9.03097" style="fill: #000000;text-anchor:middle;font-family:sans-serif;font-style:normal;font-weight:normal" x="639.25" y="504.24">
      <tspan x="639.25" y="504.24">4444</tspan>
      <tspan x="639.25" y="515.529">4444</tspan>
    </text>
  </g>
  <g>
    <rect style="fill: #ffa500" x="403.302" y="630.201" width="253.798" height="70"/>
    <rect style="fill: none; fill-opacity:0; stroke-width: 2; stroke: #000000" x="403.302" y="630.201" width="253.798" height="70"/>
    <text font-size="12.8" style="fill: #000000;text-anchor:middle;font-family:sans-serif;font-style:normal;font-weight:700" x="530.201" y="662.001">
      <tspan x="530.201" y="662.001">SeleniumHub</tspan>
      <tspan x="530.201" y="678.001"></tspan>
    </text>
  </g>
  <text font-size="12.7998" style="fill: #000000;text-anchor:middle;font-family:sans-serif;font-style:normal;font-weight:normal" x="530.201" y="665.201">
    <tspan x="530.201" y="665.201">.</tspan>
    <tspan x="530.201" y="681.201">selenium/hub:2.48.2</tspan>
  </text>
  <g>
    <rect style="fill: #ffa500" x="404.302" y="755.201" width="253.798" height="70"/>
    <rect style="fill: none; fill-opacity:0; stroke-width: 2; stroke: #000000" x="404.302" y="755.201" width="253.798" height="70"/>
    <text font-size="12.8" style="fill: #000000;text-anchor:middle;font-family:sans-serif;font-style:normal;font-weight:700" x="531.201" y="787.001">
      <tspan x="531.201" y="787.001">SeleniumNodeChrome</tspan>
      <tspan x="531.201" y="803.001"></tspan>
    </text>
  </g>
  <text font-size="12.7998" style="fill: #000000;text-anchor:middle;font-family:sans-serif;font-style:normal;font-weight:normal" x="531.201" y="790.201">
    <tspan x="531.201" y="790.201">.</tspan>
    <tspan x="531.201" y="806.201">selenium/node-chrome:2.48.2</tspan>
  </text>
  <g>
    <polyline style="fill: none; fill-opacity:0; stroke-width: 2; stroke: #ff0000" points="372.632,175 372.632,595.99 530.201,595.99 530.201,619.201 "/>
    <polygon style="fill: #ff0000" points="525.201,619.201 530.201,629.201 535.201,619.201 "/>
    <polygon style="fill: none; fill-opacity:0; stroke-width: 2; stroke: #ff0000" points="525.201,619.201 530.201,629.201 535.201,619.201 "/>
  </g>
  <g>
    <polyline style="fill: none; fill-opacity:0; stroke-width: 2; stroke: #ff0000" points="372.632,175 372.632,730.99 531.201,730.99 531.201,744.201 "/>
    <polygon style="fill: #ff0000" points="526.201,744.201 531.201,754.201 536.201,744.201 "/>
    <polygon style="fill: none; fill-opacity:0; stroke-width: 2; stroke: #ff0000" points="526.201,744.201 531.201,754.201 536.201,744.201 "/>
  </g>
  <g>
    <polygon style="fill: #008200" points="86.35,338.99 86.35,368.323 73.6,368.323 99.1,382.99 99.1,382.99 124.6,368.323 111.85,368.323 111.85,338.99 "/>
    <polygon style="fill: none; fill-opacity:0; stroke-width: 2; stroke: #000000" points="86.35,338.99 86.35,368.323 73.6,368.323 99.1,382.99 99.1,382.99 124.6,368.323 111.85,368.323 111.85,338.99 "/>
    <polygon style="fill: none; fill-opacity:0; stroke-width: 2; stroke: #000000" points="86.35,338.99 86.35,368.323 73.6,368.323 99.1,382.99 99.1,382.99 124.6,368.323 111.85,368.323 111.85,338.99 "/>
  </g>
  <text font-size="12.7998" style="fill: #000000;text-anchor:middle;font-family:sans-serif;font-style:normal;font-weight:normal" x="99.1" y="365.485">
    <tspan x="99.1" y="365.485">up</tspan>
  </text>
  <g>
    <polyline style="fill: none; fill-opacity:0; stroke-width: 2; stroke: #ff0000" points="372.632,175 372.632,472.99 530.901,472.99 530.901,496.026 "/>
    <polygon style="fill: #ff0000" points="525.901,496.026 530.901,506.026 535.901,496.026 "/>
    <polygon style="fill: none; fill-opacity:0; stroke-width: 2; stroke: #ff0000" points="525.901,496.026 530.901,506.026 535.901,496.026 "/>
  </g>
  <g>
    <line style="fill: none; fill-opacity:0; stroke-width: 2; stroke-dasharray: 4; stroke: #000000" x1="156.375" y1="569.365" x2="157.708" y2="624.293"/>
    <polygon style="fill: #000000" points="152.71,624.415 157.951,634.29 162.707,624.172 "/>
    <polygon style="fill: none; fill-opacity:0; stroke-width: 2; stroke: #000000" points="152.71,624.415 157.951,634.29 162.707,624.172 "/>
  </g>
  <g>
    <line style="fill: none; fill-opacity:0; stroke-width: 2; stroke-dasharray: 4; stroke: #000000" x1="156.375" y1="569.365" x2="157.885" y2="754.04"/>
    <polygon style="fill: #000000" points="152.885,754.081 157.967,764.04 162.885,753.999 "/>
    <polygon style="fill: none; fill-opacity:0; stroke-width: 2; stroke: #000000" points="152.885,754.081 157.967,764.04 162.885,753.999 "/>
  </g>
  <text font-size="12.7998" style="fill: #000000;text-anchor:end;font-family:sans-serif;font-style:normal;font-weight:normal" x="157.175" y="602.327">
    <tspan x="157.175" y="602.327">Link</tspan>
  </text>
  <text font-size="12.7998" style="fill: #000000;text-anchor:end;font-family:sans-serif;font-style:normal;font-weight:normal" x="155.45" y="733.79">
    <tspan x="155.45" y="733.79">Link</tspan>
  </text>
  <g>
    <line style="fill: none; fill-opacity:0; stroke-width: 2; stroke-dasharray: 4; stroke: #000000" x1="594.351" y1="571.026" x2="593.781" y2="619.202"/>
    <polygon style="fill: #000000" points="588.781,619.142 593.662,629.201 598.78,619.261 "/>
    <polygon style="fill: none; fill-opacity:0; stroke-width: 2; stroke: #000000" points="588.781,619.142 593.662,629.201 598.78,619.261 "/>
  </g>
  <text font-size="12.7998" style="fill: #000000;text-anchor:end;font-family:sans-serif;font-style:normal;font-weight:normal" x="594.001" y="600.613">
    <tspan x="594.001" y="600.613">Link</tspan>
  </text>
  <g>
    <line style="fill: none; fill-opacity:0; stroke-width: 2; stroke-dasharray: 4; stroke: #000000" x1="658.1" y1="772.701" x2="775.251" y2="580.434"/>
    <polygon style="fill: #000000" points="779.521,583.035 780.455,571.894 770.982,577.832 "/>
    <polygon style="fill: none; fill-opacity:0; stroke-width: 2; stroke: #000000" points="779.521,583.035 780.455,571.894 770.982,577.832 "/>
  </g>
  <text font-size="12.7998" style="fill: #000000;text-anchor:end;font-family:sans-serif;font-style:normal;font-weight:normal" x="699.538" y="706.87">
    <tspan x="699.538" y="706.87">Link</tspan>
  </text>
  <g>
    <line style="fill: none; fill-opacity:0; stroke-width: 2; stroke-dasharray: 4; stroke: #000000" x1="594.651" y1="755.201" x2="593.85" y2="711.199"/>
    <polygon style="fill: #000000" points="598.85,711.108 593.669,701.201 588.851,711.29 "/>
    <polygon style="fill: none; fill-opacity:0; stroke-width: 2; stroke: #000000" points="598.85,711.108 593.669,701.201 588.851,711.29 "/>
  </g>
  <text font-size="12.7998" style="fill: #000000;text-anchor:end;font-family:sans-serif;font-style:normal;font-weight:normal" x="593.151" y="734.701">
    <tspan x="593.151" y="734.701">Link</tspan>
  </text>
  <text font-size="12.7998" style="fill: #ffffff;text-anchor:start;font-family:sans-serif;font-style:normal;font-weight:normal" x="66.6" y="453.99">
    <tspan x="66.6" y="453.99"> </tspan>
    <tspan x="66.6" y="469.99"> </tspan>
    <tspan x="66.6" y="485.99">  coreos latest</tspan>
  </text>
</svg>
